<svg xmlns="http://www.w3.org/2000/svg" viewBox="0 0 64 64" aria-hidden="true" role="img">
  <title>Help me manage health app</title>
  <defs>
    <linearGradient id="heartGradient" x1="0" y1="0" x2="1" y2="1">
      <stop offset="0%" stop-color="#34d399" />
      <stop offset="100%" stop-color="#059669" />
    </linearGradient>
  </defs>
  <path
    fill="url(#heartGradient)"
    d="M32 55s-4.6-4.2-9.5-8.5C15.6 40.3 8 33.5 8 24.7 8 17.7 13.3 12 20 12c4.3 0 8.1 2.1 10.4 5.5C32.8 14.1 36.7 12 41 12c6.7 0 12 5.7 12 12.7 0 8.8-7.6 15.6-14.5 21.8C36.6 50.8 32 55 32 55z"
  />
  <path
    d="M10 32h9l3.2-6.4 5.6 12 5.1-10.2 4.2 8.6H54"
    fill="none"
    stroke="#ffffff"
    stroke-width="3.2"
    stroke-linecap="round"
    stroke-linejoin="round"
  />
</svg>
